<?xml version="1.0" standalone="no"?>
<!DOCTYPE svg PUBLIC "-//W3C//DTD SVG 20010904//EN"
 "http://www.w3.org/TR/2001/REC-SVG-20010904/DTD/svg10.dtd">
<svg version="1.0" xmlns="http://www.w3.org/2000/svg"
 width="512.000000pt" height="512.000000pt" viewBox="0 0 512.000000 512.000000"
 preserveAspectRatio="xMidYMid meet">

<g transform="translate(0.000000,512.000000) scale(0.100000,-0.100000)"
fill="#000000" stroke="blue" stroke-width="2">
<path d="M292 5103 c-65 -32 -77 -62 -80 -215 -4 -148 2 -172 45 -189 32 -12
79 4 93 32 6 10 10 67 10 128 l0 111 1735 0 1735 0 0 -430 0 -430 -1735 0
-1735 0 0 164 c0 150 -2 165 -21 190 -27 34 -77 36 -107 3 l-22 -23 0 -2163
c0 -2396 -5 -2204 64 -2254 l31 -22 1850 0 1850 0 97 27 c458 126 780 518 805
980 24 432 -213 834 -601 1023 -83 41 -259 95 -307 95 -18 0 -19 43 -21 1449
-3 1440 -3 1450 -23 1477 -11 15 -36 35 -55 45 -33 18 -101 19 -1805 19 -1610
0 -1773 -2 -1803 -17z m3538 -2053 l0 -910 -44 0 c-65 0 -201 -26 -284 -54
-399 -136 -673 -480 -722 -906 -44 -373 146 -779 463 -991 l59 -39 -1471 0
-1471 0 0 1905 0 1905 1735 0 1735 0 0 -910z m166 -1071 c598 -105 934 -753
674 -1297 -50 -104 -86 -157 -168 -244 -121 -128 -298 -226 -475 -264 -97 -20
-283 -20 -378 2 -384 86 -671 401 -719 789 -34 273 67 562 266 759 135 134
311 225 492 256 70 12 240 11 308 -1z"/>
<path d="M1220 3643 c-52 -19 -68 -85 -30 -123 20 -20 33 -20 905 -20 872 0
885 0 905 20 27 27 26 81 -1 106 -20 18 -51 19 -893 21 -479 1 -878 -1 -886
-4z"/>
<path d="M772 3143 c-7 -3 -19 -18 -28 -35 -13 -25 -13 -35 -3 -59 6 -17 20
-34 30 -39 10 -6 151 -10 334 -10 l316 0 24 25 c14 13 25 36 25 50 0 14 -11
37 -25 50 l-24 25 -318 -1 c-175 0 -324 -3 -331 -6z"/>
<path d="M1995 3125 c-14 -13 -25 -36 -25 -50 0 -14 11 -37 25 -50 24 -25 25
-25 223 -25 180 0 202 2 223 19 32 26 32 86 0 112 -21 17 -43 19 -223 19 -198
0 -199 0 -223 -25z"/>
<path d="M2985 3125 c-14 -13 -25 -36 -25 -50 0 -14 11 -37 25 -50 24 -25 25
-25 223 -25 180 0 202 2 223 19 17 13 23 29 23 56 0 27 -6 43 -23 56 -21 17
-43 19 -223 19 -198 0 -199 0 -223 -25z"/>
<path d="M764 2757 c-35 -31 -38 -82 -5 -109 22 -17 47 -18 346 -18 l324 0 20
26 c24 30 26 43 10 77 -20 44 -42 47 -364 47 l-304 0 -27 -23z"/>
<path d="M2013 2770 c-46 -19 -57 -83 -20 -118 22 -21 32 -22 221 -22 120 0
205 4 217 11 48 25 44 105 -7 128 -30 13 -378 14 -411 1z"/>
<path d="M3003 2770 c-46 -19 -57 -83 -20 -118 22 -21 32 -22 224 -22 220 0
235 4 249 62 5 22 0 33 -24 58 l-30 30 -189 -1 c-103 0 -198 -4 -210 -9z"/>
<path d="M755 2380 c-25 -28 -23 -76 4 -103 21 -22 25 -22 342 -22 l321 0 24
28 c29 34 30 56 3 91 l-20 26 -328 0 c-316 0 -329 -1 -346 -20z"/>
<path d="M1990 2378 c-42 -46 -15 -111 53 -123 19 -4 112 -5 207 -3 l172 3 24
28 c29 34 30 56 3 91 l-20 26 -209 0 c-202 0 -210 -1 -230 -22z"/>
<path d="M2980 2380 c-25 -25 -26 -74 -1 -99 29 -29 68 -33 261 -29 l172 3 24
28 c29 34 30 56 3 91 l-20 26 -210 0 c-196 0 -210 -1 -229 -20z"/>
<path d="M759 2012 c-33 -27 -30 -78 5 -109 l27 -23 304 0 c322 0 344 3 364
47 16 36 14 51 -14 78 l-24 25 -319 0 c-296 0 -321 -1 -343 -18z"/>
<path d="M1991 2004 c-26 -33 -27 -65 -2 -95 19 -24 23 -24 212 -27 210 -4
240 2 259 47 13 33 0 75 -29 90 -12 7 -98 11 -220 11 l-200 0 -20 -26z"/>
<path d="M769 1647 c-31 -24 -42 -56 -28 -88 6 -17 20 -34 30 -39 10 -6 151
-10 334 -10 l316 0 24 25 c14 13 25 36 25 50 0 14 -11 37 -25 50 l-24 25 -318
0 c-234 -1 -322 -4 -334 -13z"/>
<path d="M1995 1635 c-14 -13 -25 -36 -25 -50 0 -14 11 -37 25 -50 24 -25 25
-25 222 -25 215 0 234 4 247 55 7 29 -15 79 -39 89 -9 3 -104 6 -211 6 -194 0
-195 0 -219 -25z"/>
<path d="M764 1267 c-35 -31 -38 -82 -5 -109 22 -17 47 -18 346 -18 l324 0 20
26 c24 30 26 43 10 77 -20 44 -42 47 -364 47 l-304 0 -27 -23z"/>
<path d="M2013 1280 c-46 -19 -57 -83 -20 -118 22 -21 32 -22 229 -22 l207 0
20 26 c28 36 26 60 -8 95 l-29 29 -189 -1 c-103 0 -198 -4 -210 -9z"/>
<path d="M3716 1500 c-49 -15 -125 -73 -142 -108 -22 -48 -11 -83 53 -158 30
-36 54 -66 52 -68 -2 -1 -39 -24 -82 -49 l-78 -47 -33 25 c-97 74 -220 90
-320 41 -88 -43 -121 -110 -92 -181 22 -52 161 -202 228 -245 80 -52 166 -74
270 -68 96 5 132 19 355 143 184 102 208 130 162 189 -34 44 -65 36 -253 -67
-200 -110 -219 -117 -301 -117 -91 0 -163 39 -249 134 l-67 75 39 10 c50 14
89 2 153 -45 37 -27 64 -38 97 -41 44 -4 56 1 174 71 139 83 168 111 168 163
0 44 -12 67 -66 125 -48 51 -52 63 -28 72 34 13 60 4 147 -51 126 -80 161 -82
295 -19 118 55 181 66 232 39 26 -13 35 -25 35 -43 0 -21 -14 -32 -83 -71
-103 -58 -122 -75 -122 -111 0 -34 39 -78 71 -78 28 0 207 101 241 137 104
110 27 289 -139 323 -78 17 -159 2 -272 -49 -50 -23 -96 -41 -102 -41 -6 0
-43 20 -83 44 -120 75 -179 90 -260 66z"/>
<path d="M982 4839 c-282 -56 -335 -435 -79 -571 35 -19 58 -23 137 -23 86 0
100 3 142 27 63 37 123 109 144 170 22 67 15 177 -14 235 -61 118 -203 188
-330 162z m138 -168 c125 -89 71 -281 -78 -281 -140 0 -209 161 -111 259 52
52 134 62 189 22z"/>
<path d="M1650 4750 c-30 -30 -27 -83 6 -109 27 -21 32 -21 880 -21 613 0 860
3 878 11 51 23 55 103 7 128 -13 8 -294 11 -885 11 -853 0 -866 0 -886 -20z"/>
<path d="M1652 4437 c-29 -31 -29 -77 1 -105 23 -22 25 -22 466 -22 264 0 450
4 460 10 10 5 24 22 30 39 10 24 10 34 -3 59 -8 16 -23 32 -31 36 -9 3 -216 6
-459 6 l-443 0 -21 -23z"/>
</g>
</svg>
